<?xml version="1.0" encoding="utf-8"?>
<!-- Generator: Adobe Illustrator 19.2.1, SVG Export Plug-In . SVG Version: 6.00 Build 0)  -->
<svg version="1.1" id="Capa_1" xmlns="http://www.w3.org/2000/svg" xmlns:xlink="http://www.w3.org/1999/xlink" x="0px" y="0px"
	 viewBox="0 0 25 25" style="enable-background:new 0 0 25 25;" xml:space="preserve">
<style type="text/css">
	.st0{fill:#FFFFFF;}
</style>
<g>
	<path class="st0" d="M19.2,6.7c-0.5,0-1-0.4-1-1V3.8c0-0.5,0.4-1,1-1h1.9c0.5,0,1,0.4,1,1v1.9c0,0.5-0.4,1-1,1H19.2z"/>
	<path class="st0" d="M12.5,8.8c-0.7,0-1.3,0.2-1.9,0.5c0.2-0.1,0.4-0.1,0.5-0.1c1,0,1.9,0.8,1.9,1.9c0,1-0.8,1.9-1.9,1.9
		s-1.9-0.8-1.9-1.9c0-0.2,0-0.4,0.1-0.5c-0.3,0.6-0.5,1.2-0.5,1.9c0,2,1.6,3.7,3.7,3.7c2,0,3.7-1.6,3.7-3.7S14.5,8.8,12.5,8.8z"/>
	<g>
		<path class="st0" d="M12.5,6.7c3.2,0,5.8,2.6,5.8,5.8s-2.6,5.8-5.8,5.8c-3.2,0-5.8-2.6-5.8-5.8S9.3,6.7,12.5,6.7 M12.5,4.8
			c-4.2,0-7.7,3.5-7.7,7.7s3.5,7.7,7.7,7.7s7.7-3.5,7.7-7.7S16.7,4.8,12.5,4.8L12.5,4.8z"/>
	</g>
	<path class="st0" d="M20.3,0H4.7C2.1,0,0,2.1,0,4.7v15.6C0,22.9,2.1,25,4.7,25h15.6c2.6,0,4.7-2.1,4.7-4.7V4.7
		C25,2.1,22.9,0,20.3,0z M23.1,8.7h-6.3c0.9,1,1.5,2.4,1.5,3.8c0,3.2-2.6,5.8-5.8,5.8c-3.2,0-5.8-2.6-5.8-5.8c0-1.5,0.6-2.8,1.5-3.8
		H1.9v-4c0-1.5,1.2-2.8,2.8-2.8h15.6c1.5,0,2.8,1.2,2.8,2.8V8.7z"/>
</g>
</svg>
