<?xml version="1.0" encoding="utf-8"?>
<!-- Generator: Adobe Illustrator 19.2.1, SVG Export Plug-In . SVG Version: 6.00 Build 0)  -->
<svg version="1.1" id="Capa_1" xmlns="http://www.w3.org/2000/svg" xmlns:xlink="http://www.w3.org/1999/xlink" x="0px" y="0px"
	 viewBox="0 0 25 25" style="enable-background:new 0 0 25 25;" xml:space="preserve">
<style type="text/css">
	.st0{fill:#FFFFFF;}
</style>
<g>
	<path class="st0" d="M25,18.7c0,0.5-0.2,1.1-0.4,1.5l-7.9-8.8l7.8-6.8c0.3,0.5,0.5,1,0.5,1.7L25,18.7L25,18.7z M12.5,13l10.9-9.5
		c-0.4-0.2-0.9-0.4-1.5-0.4H3.1c-0.5,0-1,0.1-1.5,0.4L12.5,13z M15.5,12.4L13,14.7c-0.1,0.1-0.3,0.2-0.5,0.2c-0.2,0-0.4-0.1-0.5-0.2
		l-2.5-2.2l-8,8.9c0.5,0.3,1,0.5,1.6,0.5h18.8c0.6,0,1.2-0.2,1.6-0.5L15.5,12.4z M0.5,4.6C0.2,5.1,0,5.6,0,6.2v12.5
		c0,0.5,0.2,1.1,0.4,1.5l7.9-8.8L0.5,4.6z"/>
</g>
</svg>
