<?xml version="1.0" encoding="utf-8"?>
<!-- Generator: Adobe Illustrator 19.2.1, SVG Export Plug-In . SVG Version: 6.00 Build 0)  -->
<svg version="1.1" id="Capa_1" xmlns="http://www.w3.org/2000/svg" xmlns:xlink="http://www.w3.org/1999/xlink" x="0px" y="0px"
	 viewBox="0 0 25 25" style="enable-background:new 0 0 25 25;" xml:space="preserve">
<style type="text/css">
	.st0{fill:#FFFFFF;}
</style>
<g>
	<g>
		<path class="st0" d="M24,0C24,0,24,0,24,0L0.6,8.8C0.3,8.9,0.1,9.2,0.1,9.4c0,0.3,0.1,0.5,0.3,0.7l5.1,3.4l1.9,7.9c0,0,0,0,0,0.1
			c0.2,0.5,0.8,0.7,1.2,0.3l3.7-3.7l5.7,3.8c0.4,0.3,1,0.1,1.1-0.4L25,0.9C25.1,0.4,24.6-0.1,24,0z M9.2,14.9
			c-0.1,0.1-0.2,0.2-0.2,0.4c0,0,0,0,0,0l-0.8,3L7,13.4l11.3-7.8L9.2,14.9z"/>
	</g>
</g>
<g>
	<g>
		<path class="st0" d="M4.9,20.1c-0.3-0.3-0.7-0.3-1,0l-3.7,3.7c-0.3,0.3-0.3,0.7,0,1c0.3,0.3,0.7,0.3,1,0l3.7-3.7
			C5.2,20.8,5.2,20.4,4.9,20.1z"/>
	</g>
</g>
<g>
	<g>
		<path class="st0" d="M4.9,15.7c-0.3-0.3-0.7-0.3-1,0l-3.7,3.7c-0.3,0.3-0.3,0.7,0,1c0.3,0.3,0.7,0.3,1,0l3.7-3.7
			C5.2,16.4,5.2,16,4.9,15.7z"/>
	</g>
</g>
</svg>
