<?xml version="1.0" encoding="utf-8"?>
<!-- Generator: Adobe Illustrator 19.2.1, SVG Export Plug-In . SVG Version: 6.00 Build 0)  -->
<svg version="1.1" id="Capa_1" xmlns="http://www.w3.org/2000/svg" xmlns:xlink="http://www.w3.org/1999/xlink" x="0px" y="0px"
	 viewBox="0 0 25 25" style="enable-background:new 0 0 25 25;" xml:space="preserve">
<style type="text/css">
	.st0{fill:#FFFFFF;}
</style>
<g>
	<g>
		<g>
			<path class="st0" d="M24.4,19.8l-3.9-3.9c-0.8-0.8-2-0.7-2.8,0.1l-1.9,1.9c-0.1-0.1-0.3-0.1-0.4-0.2c-1.2-0.7-2.9-1.6-4.7-3.4
				C9,12.5,8,10.8,7.3,9.6C7.3,9.5,7.2,9.4,7.1,9.2l1.3-1.3l0.6-0.6c0.8-0.8,0.8-2.1,0.1-2.8L5.3,0.6c-0.8-0.8-2-0.7-2.8,0.1
				L1.3,1.7l0,0C1,2.2,0.7,2.8,0.5,3.3C0.3,3.9,0.1,4.4,0.1,5C-0.4,9.2,1.5,13,6.7,18.3C14,25.5,19.8,25,20.1,25
				c0.5-0.1,1.1-0.2,1.6-0.4c0.6-0.2,1.1-0.5,1.6-0.9l0,0l1.1-1.1C25.2,21.8,25.2,20.5,24.4,19.8z"/>
		</g>
	</g>
</g>
</svg>
