<?xml version="1.0" encoding="utf-8"?>
<!-- Generator: Adobe Illustrator 19.2.1, SVG Export Plug-In . SVG Version: 6.00 Build 0)  -->
<svg version="1.1" id="Capa_1" xmlns="http://www.w3.org/2000/svg" xmlns:xlink="http://www.w3.org/1999/xlink" x="0px" y="0px"
	 viewBox="0 0 25 25" style="enable-background:new 0 0 25 25;" xml:space="preserve">
<style type="text/css">
	.st0{fill:#FFFFFF;}
</style>
<g>
	<path id="YouTube" class="st0" d="M19.7,18.3h-1.4l0-0.8c0-0.4,0.3-0.6,0.6-0.6h0.1c0.4,0,0.6,0.3,0.6,0.6L19.7,18.3z M14.6,16.6
		c-0.3,0-0.6,0.2-0.6,0.5V21c0,0.3,0.3,0.5,0.6,0.5c0.3,0,0.6-0.2,0.6-0.5v-3.9C15.2,16.8,14.9,16.6,14.6,16.6z M22.9,14.4v7.4
		c0,1.8-1.5,3.2-3.4,3.2h-14c-1.9,0-3.4-1.4-3.4-3.2v-7.4c0-1.8,1.5-3.2,3.4-3.2h14C21.4,11.2,22.9,12.6,22.9,14.4z M6.4,22.6l0-7.8
		l1.7,0v-1.2l-4.6,0v1.1l1.4,0v7.8H6.4z M11.6,16h-1.4v4.1c0,0.6,0,0.9,0,1c-0.1,0.3-0.6,0.7-0.9,0c0-0.1,0-0.4,0-1l0-4.2H7.9l0,4.1
		c0,0.6,0,1.1,0,1.3c0,0.4,0,0.8,0.4,1.1c0.7,0.5,1.9-0.1,2.2-0.7l0,0.9l1.2,0L11.6,16L11.6,16z M16.3,20.7l0-3.5c0-1.3-1-2.1-2.3-1
		l0-2.6l-1.4,0l0,8.9l1.2,0l0.1-0.6C15.3,23.4,16.3,22.4,16.3,20.7z M20.8,20.3l-1.1,0c0,0,0,0.1,0,0.1V21c0,0.3-0.3,0.6-0.6,0.6
		h-0.2c-0.3,0-0.6-0.3-0.6-0.6V21v-0.7v-0.9h2.5v-0.9c0-0.7,0-1.4-0.1-1.8c-0.2-1.2-1.9-1.4-2.8-0.8c-0.3,0.2-0.5,0.5-0.6,0.8
		c-0.1,0.4-0.2,0.8-0.2,1.5v2.1C17.1,23.7,21.3,23.2,20.8,20.3z M15.2,9.1c0.1,0.2,0.2,0.3,0.3,0.4c0.2,0.1,0.4,0.2,0.6,0.2
		c0.2,0,0.4-0.1,0.6-0.2C16.9,9.4,17,9.2,17.1,9l0,0.6h1.6V2.7h-1.3v5.3c0,0.3-0.2,0.5-0.5,0.5c-0.3,0-0.5-0.2-0.5-0.5V2.7h-1.3v4.6
		c0,0.6,0,1,0,1.2C15.1,8.7,15.2,8.9,15.2,9.1z M10.3,5.2c0-0.7,0.1-1.2,0.2-1.5c0.1-0.4,0.3-0.7,0.6-0.9c0.3-0.2,0.7-0.3,1.1-0.3
		c0.4,0,0.7,0.1,1,0.2c0.3,0.1,0.5,0.3,0.6,0.6c0.1,0.2,0.2,0.5,0.3,0.7c0.1,0.2,0.1,0.6,0.1,1.1v1.7c0,0.6,0,1.1-0.1,1.4
		c0,0.3-0.2,0.6-0.3,0.8c-0.2,0.3-0.4,0.4-0.6,0.6c-0.3,0.1-0.5,0.2-0.9,0.2c-0.4,0-0.7-0.1-0.9-0.2c-0.3-0.1-0.5-0.3-0.6-0.5
		c-0.1-0.2-0.2-0.5-0.3-0.8c-0.1-0.3-0.1-0.8-0.1-1.4L10.3,5.2L10.3,5.2z M11.6,7.9c0,0.4,0.3,0.7,0.6,0.7c0.4,0,0.6-0.3,0.6-0.7
		V4.3c0-0.4-0.3-0.7-0.6-0.7c-0.4,0-0.6,0.3-0.6,0.7V7.9z M7.1,9.8h1.5l0-5.3L10.5,0H8.8l-1,3.4L6.9,0H5.2l1.9,4.5L7.1,9.8z"/>
</g>
</svg>
